<?xml version="1.0" encoding="UTF-8" standalone="no"?>
<!-- Created with Inkscape (http://www.inkscape.org/) -->

<svg
   width="60mm"
   height="60mm"
   viewBox="0 0 60 60"
   version="1.1"
   id="svg5"
   xml:space="preserve"
   inkscape:version="1.2.2 (732a01da63, 2022-12-09)"
   sodipodi:docname="icon.svg"
   inkscape:export-filename="aeag_mask.png"
   inkscape:export-xdpi="54.186668"
   inkscape:export-ydpi="54.186668"
   xmlns:inkscape="http://www.inkscape.org/namespaces/inkscape"
   xmlns:sodipodi="http://sodipodi.sourceforge.net/DTD/sodipodi-0.dtd"
   xmlns="http://www.w3.org/2000/svg"
   xmlns:svg="http://www.w3.org/2000/svg"><sodipodi:namedview
     id="namedview7"
     pagecolor="#ffffff"
     bordercolor="#000000"
     borderopacity="0.25"
     inkscape:showpageshadow="2"
     inkscape:pageopacity="0.0"
     inkscape:pagecheckerboard="0"
     inkscape:deskcolor="#d1d1d1"
     inkscape:document-units="mm"
     showgrid="false"
     inkscape:zoom="1.5625562"
     inkscape:cx="102.39632"
     inkscape:cy="76.157263"
     inkscape:window-width="1350"
     inkscape:window-height="1041"
     inkscape:window-x="58"
     inkscape:window-y="14"
     inkscape:window-maximized="0"
     inkscape:current-layer="g8018" /><defs
     id="defs2" /><g
     inkscape:label="Layer 1"
     inkscape:groupmode="layer"
     id="layer1"
     transform="translate(-91.483604,-93.964783)"><g
       id="g8018"
       transform="translate(0.11973203,0.11973249)"><path
         style="fill:#e7f0f0;stroke-width:0.263737"
         d="m 90.636968,123.96478 0.169327,-31.523943 29.540565,0.338655 h 32.56998 2.29196 l -0.16933,31.523938 v 30 h -30 l -34.402502,-0.33865 z m 35.568962,25.21608 1.16646,-0.41068 1.16147,-0.94757 1.16147,-0.94756 1.43698,-2.04172 c 0.79033,-1.12295 1.61543,-2.18919 1.83355,-2.36941 l 0.39657,-0.32768 0.59623,0.14124 c 0.32793,0.0777 1.13277,0.34696 1.78854,0.59837 l 1.19232,0.45713 1.05198,-0.19649 1.052,-0.19649 0.95218,-0.99656 0.95218,-0.99656 0.71917,-2.24867 0.71918,-2.24867 0.14823,-1.42992 0.14823,-1.42991 -0.30348,-0.91552 -0.30348,-0.91552 -0.78657,-0.75028 -0.78657,-0.75028 -1.59419,-0.11481 -1.59418,-0.11481 -0.27878,-0.51861 -0.27878,-0.51863 0.15539,-0.61641 0.15539,-0.61642 2.08837,-2.24428 2.08837,-2.24429 0.81836,-1.6305 0.81836,-1.63051 v -1.4092 -1.4092 l -0.85903,-0.92488 -0.85903,-0.92488 -1.64146,-0.29997 -1.64147,-0.29996 -1.4083,-1.8634 c -0.77456,-1.02486 -1.68294,-2.31048 -2.0186,-2.85691 l -0.6103,-0.99353 0.14632,-0.37962 0.14632,-0.37963 -0.23198,-0.14275 c -0.12759,-0.0785 -0.55604,-1.11153 -0.95211,-2.2956 l -0.72013,-2.15287 -0.67443,-0.67147 -0.67444,-0.67147 -0.0139,-0.65977 -0.0139,-0.65977 -0.79098,0.0583 -0.79099,0.0583 -0.29542,0.40225 -0.29542,0.40224 -0.89597,-0.004 c -0.49279,-0.002 -1.60963,-0.17567 -2.48188,-0.38536 l -1.5859,-0.38125 -1.99343,-0.009 -1.99342,-0.009 -1.17838,-1.205315 c -0.64811,-0.662924 -1.5179,-1.382889 -1.93287,-1.59992 l -0.75448,-0.394603 -2.25903,0.01651 c -2.7452,0.02006 -3.79778,0.180813 -5.36173,0.818848 l -1.20022,0.489643 -1.44296,0.180084 -1.44295,0.180084 -0.88563,0.823119 c -0.48709,0.45272 -1.36906,1.53365 -1.95992,2.40207 -0.59087,0.86843 -1.527674,2.12499 -2.08179,2.79236 l -1.007485,1.21341 -0.798899,1.68133 -0.7989,1.68133 -2.08e-4,3.53533 -2.09e-4,3.53534 0.53939,1.10934 0.539391,1.10935 1.545071,1.67878 1.545069,1.67877 1.41774,0.78181 1.41774,0.7818 h 3.72448 3.72448 l 0.42828,0.35272 c 0.23556,0.19398 0.50372,0.58936 0.59593,0.87861 0.0922,0.28924 0.57569,1.20787 1.07441,2.0414 0.49871,0.83352 1.02499,1.91841 1.1695,2.41086 l 0.26275,0.89536 -0.30272,2.36842 -0.30271,2.36842 0.66276,1.97369 c 0.36452,1.08552 0.86039,2.6611 1.10194,3.50128 0.52982,1.84292 2.36616,6.05609 3.06619,7.03489 l 0.50477,0.70577 0.86744,0.44434 0.86744,0.44435 1.98238,-0.13179 1.98237,-0.13179 z"
         id="path8040"
         sodipodi:nodetypes="ccccccccccccccccccccccccccccccccccccccccccccccccssccccsccccccccccscccsccscccccccccccccccccccccssscccscscccccc" /><path
         style="fill:#f1e2aa;stroke-width:0.263737"
         d="m 128.14277,139.95075 -0.59714,-0.91047 h -0.39405 -0.39404 v -0.25873 -0.25872 l 1.34786,-0.68003 1.34787,-0.68002 0.14862,0.14797 0.14861,0.14796 -0.33914,1.11973 c -0.18653,0.61585 -0.41391,1.38142 -0.5053,1.70126 l -0.16615,0.58153 z m 8.83599,0.19645 c -0.0572,-0.10223 -0.17571,-0.48554 -0.26326,-0.8518 l -0.15918,-0.66592 0.488,-0.74065 0.48799,-0.74064 0.1452,0.2339 c 0.0799,0.12865 0.12359,0.7899 0.0972,1.46945 l -0.048,1.23555 -0.32193,0.12299 -0.32193,0.123 z m -7.36825,-4.38553 -0.45098,-0.60564 -0.81861,-0.11963 -0.81862,-0.11962 -0.25952,0.4828 c -0.14274,0.26554 -0.37428,0.4828 -0.51454,0.4828 h -0.25502 v -0.29787 c 0,-0.16383 0.43377,-0.70518 0.96393,-1.203 l 0.96393,-0.90511 0.15942,0.23231 c 0.0877,0.12778 0.3973,0.24316 0.68805,0.25641 0.29075,0.0132 0.79625,0.1086 1.12335,0.21189 l 0.59471,0.18781 v -0.55701 -0.55701 h 0.26432 0.26431 v -0.37281 -0.3728 l -0.33039,-0.11913 -0.3304,-0.11912 0.3304,-0.55713 c 0.18172,-0.30642 0.33039,-0.73351 0.33039,-0.94908 0,-0.21557 0.23745,-0.77968 0.52765,-1.25357 l 0.52765,-0.86162 0.001,0.4111 c 5.3e-4,0.2261 0.22336,0.87741 0.49514,1.44736 0.27178,0.56995 0.57421,1.47869 0.67208,2.01943 l 0.17792,0.98315 -0.27357,0.50893 -0.27357,0.50893 -0.86106,0.27412 c -0.47358,0.15077 -1.09439,0.24907 -1.37957,0.21845 l -0.5185,-0.0557 -0.10186,0.52631 c -0.056,0.28948 -0.17953,0.60582 -0.27445,0.703 l -0.17265,0.17668 z m -11.43141,-5.99771 c -0.20683,-0.4704 -0.44276,-1.1718 -0.52428,-1.55867 l -0.14823,-0.7034 -0.66761,-0.78993 -0.66761,-0.78992 -0.15973,-2.06234 -0.15974,-2.06234 0.62903,-0.32985 0.62903,-0.32985 1.05727,0.0697 1.05727,0.0697 v -0.3884 -0.3884 l -0.73267,-0.25654 -0.73266,-0.25653 -1.0735,0.28528 -1.07349,0.28527 0.28633,-0.28508 c 0.15749,-0.15679 0.28634,-0.48443 0.28634,-0.72808 v -0.44301 l -0.60871,-0.11585 -0.60871,-0.11585 -0.33211,0.35397 -0.33211,0.35397 -0.76911,-0.45233 -0.76911,-0.45234 -0.18272,0.18193 -0.18273,0.18192 0.47489,0.52244 0.47489,0.52244 -0.4118,0.15733 -0.4118,0.15733 -0.53192,-0.28342 -0.53191,-0.28342 h -0.84491 -0.84491 l 0.15012,-0.92105 0.15013,-0.92106 h -0.23049 c -0.12678,0 -0.51934,0.10934 -0.87237,0.24297 l -0.64187,0.24297 -0.15963,0.60776 -0.15963,0.60775 0.25566,0.25454 c 0.14061,0.14 0.25566,0.34928 0.25566,0.46507 v 0.21052 h -0.47577 c -0.26167,0 -0.6167,-0.14031 -0.78894,-0.3118 l -0.31317,-0.31179 -1.19614,0.59476 -1.19613,0.59475 -0.89132,-0.54844 -0.89131,-0.54845 -0.33008,-0.79338 -0.33007,-0.79338 -0.4279,-0.24342 -0.42789,-0.24341 0.85903,-0.78815 0.85903,-0.78814 v -0.46548 -0.46548 l 0.72687,-0.61946 0.72687,-0.61947 -0.66079,0.13358 -0.66079,0.13358 -0.41877,-0.31347 -0.41877,-0.31347 -0.16891,-0.6579 -0.16891,-0.65789 -0.92073,-1.02188 -0.92074,-1.02188 0.37533,-0.72262 c 0.20643,-0.39745 0.97945,-1.38073 1.71781,-2.18507 l 1.34247,-1.46243 0.98003,-0.30606 c 0.53903,-0.16832 1.46363,-0.53112 2.05468,-0.80621 0.59106,-0.27509 1.24524,-0.50133 1.45375,-0.50274 0.2085,-10e-4 0.98789,-0.2848 1.73197,-0.62974 l 1.35287,-0.62716 0.42025,-0.59736 0.42025,-0.59736 -0.13674,-0.22027 c -0.0752,-0.12115 -0.39733,-0.22388 -0.71585,-0.22828 l -0.57911,-0.008 0.47015,-0.27247 0.47016,-0.27246 0.58669,0.0831 0.58668,0.0831 -0.0902,1.92523 -0.0902,1.92524 1.01384,-0.0831 1.01384,-0.0831 0.3467,-0.72369 c 0.39438,-0.82323 0.5166,-0.85592 1.21962,-0.32624 l 0.50529,0.3807 0.57583,-0.14389 0.57582,-0.14389 0.4448,0.67587 0.4448,0.67587 h 0.65501 0.65502 l 1.40497,1.47908 1.40497,1.47908 0.82829,-0.42645 0.82828,-0.42644 h 0.69129 c 0.38022,0 0.93649,0.13065 1.23617,0.29033 l 0.54487,0.29032 0.20365,-0.32806 0.20365,-0.32807 0.58491,0.15229 0.5849,0.15229 0.13377,-0.50929 0.13377,-0.50929 h 0.23916 0.23915 l 0.28689,0.72369 c 0.15779,0.39802 0.38815,0.90131 0.51192,1.11842 0.12376,0.2171 0.58683,1.09457 1.02903,1.94993 l 0.804,1.55519 v 0.56556 0.56557 l 0.38807,0.51082 c 0.53775,0.70784 0.50014,1.20277 -0.21317,2.80595 l -0.61806,1.38908 -0.45479,0.37405 -0.45479,0.37404 0.17679,1.07333 0.17679,1.07332 1.08372,0.98684 1.08371,0.98685 h 0.43217 0.43217 l 0.38633,-0.46053 c 0.21249,-0.25329 0.52572,-0.78618 0.69609,-1.18421 l 0.30976,-0.72369 h 0.75255 0.75254 l 0.62078,-0.65789 0.62079,-0.65789 h 0.69401 0.69401 l 0.31718,-0.31579 0.31718,-0.31579 v 0.27067 c 0,0.14887 -0.36853,0.82462 -0.81896,1.50166 l -0.81897,1.231 -1.07883,0.91938 -1.07883,0.91939 h -0.62523 -0.62523 l -0.62761,0.62485 -0.6276,0.62486 -0.18383,1.22049 -0.18383,1.22048 -0.23382,0.14388 -0.23382,0.14387 v -1.34862 -1.34862 l -0.27362,-0.50901 -0.27361,-0.50902 h -0.38109 -0.38108 l -0.43297,-0.6579 -0.43296,-0.65789 h -0.6148 -0.6148 l -0.16379,0.26387 -0.1638,0.26387 -0.53458,-0.28485 -0.53458,-0.28484 -0.50665,0.4565 -0.50665,0.4565 v 0.69605 0.69606 l -0.26277,0.26162 c -0.34631,0.34479 -0.38915,1.22775 -0.1472,3.03408 l 0.19822,1.4799 -0.62099,0.43382 -0.621,0.43382 -0.15556,-0.59794 -0.15556,-0.59793 -0.37307,0.10008 c -0.2052,0.055 -0.87543,0.212 -1.48941,0.34877 l -1.11632,0.24868 -0.59447,-0.41455 c -0.32696,-0.22801 -0.74642,-0.41456 -0.93213,-0.41456 h -0.33767 l -0.007,0.85526 -0.007,0.85526 -0.76484,-0.91856 -0.76485,-0.91857 -0.17804,0.70624 -0.17803,0.70624 0.17264,0.27812 0.17264,0.27811 h -0.15203 c -0.0836,0 -0.32126,-0.38487 -0.52809,-0.85526 z m 6.96325,-13.31845 0.80808,-1.01582 -0.16913,-0.16839 c -0.093,-0.0926 -0.56421,-0.16839 -1.04708,-0.16839 h -0.87794 l 0.063,-0.59211 0.063,-0.5921 h -0.39648 -0.39648 l -0.0209,0.78947 c -0.0115,0.43421 -0.0677,0.90789 -0.12486,1.05263 l -0.10399,0.26316 0.48566,0.72368 c 0.63021,0.9391 0.75453,0.91795 1.71715,-0.29213 z m -3.98834,-4.03681 0.31718,-0.31579 v -0.73996 -0.73995 l -1.12335,0.17131 c -1.36076,0.20752 -1.26493,0.1369 -1.08992,0.80322 l 0.14462,0.5506 0.57177,0.27537 c 0.7558,0.36399 0.8095,0.36377 1.1797,-0.005 z m -6.13035,-2.09177 0.29256,-0.22593 0.83079,0.16542 0.83079,0.16543 v -0.54898 -0.54898 l -1.31686,-0.62746 -1.31686,-0.62746 -0.99592,0.15976 -0.99591,0.15977 -0.0854,1.03908 -0.0853,1.03907 0.43722,0.3183 0.43722,0.3183 0.83755,-0.2802 c 0.46065,-0.1541 0.9692,-0.38186 1.13011,-0.50612 z"
         id="path8038" /><path
         style="fill:#a8bcc7;fill-opacity:1;stroke-width:0.263737"
         d="m 120.20728,149.41077 -0.86744,-0.44434 -0.50477,-0.70577 c -0.70003,-0.9788 -2.53637,-5.19197 -3.06619,-7.03489 -0.24155,-0.84018 -0.73742,-2.41576 -1.10194,-3.50128 l -0.66276,-1.97369 0.30271,-2.36842 0.30272,-2.36842 -0.26275,-0.89536 c -0.14451,-0.49245 -0.67079,-1.57734 -1.1695,-2.41086 -0.49872,-0.83353 -0.9822,-1.75216 -1.07441,-2.0414 -0.0922,-0.28925 -0.36037,-0.68463 -0.59593,-0.87861 l -0.42828,-0.35272 h -3.72448 -3.72448 l -1.41774,-0.7818 -1.41774,-0.78181 -1.545069,-1.67877 -1.545071,-1.67878 -0.539391,-1.10935 -0.53939,-1.10934 2.09e-4,-3.53534 2.08e-4,-3.53533 0.7989,-1.68133 0.798899,-1.68133 1.007485,-1.21341 c 0.554116,-0.66737 1.49092,-1.92393 2.08179,-2.79236 0.59086,-0.86842 1.47283,-1.94935 1.95992,-2.40207 l 0.88563,-0.823118 1.44295,-0.180084 1.44296,-0.180084 1.20022,-0.489643 c 1.56395,-0.638035 2.61653,-0.798786 5.36173,-0.818849 l 2.25903,-0.01651 0.75448,0.394603 c 0.41497,0.217032 1.28476,0.936996 1.93287,1.59992 l 1.17838,1.205315 1.99342,0.009 1.99343,0.009 1.5859,0.38125 c 0.87225,0.20969 1.98909,0.3831 2.48188,0.38536 l 0.89597,0.004 0.29542,-0.40224 0.29542,-0.40225 0.79099,-0.0583 0.79098,-0.0583 0.0139,0.65977 0.0139,0.65977 0.6964,0.69334 0.6964,0.69335 0.84498,2.72583 c 1.5856,5.11502 3.76559,8.33914 5.7961,8.5722 0.36344,0.0417 1.03827,0.13847 1.49963,0.215 l 0.83884,0.13915 0.81314,0.92206 0.81315,0.92205 v 1.39618 1.39618 l -0.81836,1.63051 -0.81837,1.6305 -2.08837,2.24429 -2.08836,2.24428 -0.1554,0.61642 -0.15539,0.61641 0.27878,0.51863 0.27878,0.51861 1.59418,0.11481 1.59419,0.11481 0.78657,0.75028 0.78658,0.75028 0.30347,0.91552 0.30349,0.91552 -0.14824,1.42991 -0.14823,1.42992 -0.71917,2.24867 -0.71918,2.24867 -0.95218,0.99656 -0.95218,0.99656 -1.05199,0.19649 -1.05199,0.19649 -1.19231,-0.45713 c -0.65577,-0.25141 -1.46062,-0.52068 -1.78855,-0.59837 l -0.59623,-0.14124 -0.39657,0.32768 c -0.21811,0.18022 -1.04321,1.24646 -1.83355,2.36941 l -1.43698,2.04172 -1.16147,0.94756 -1.16147,0.94757 -1.16645,0.41068 -1.16646,0.41068 -1.98238,0.13179 -1.98238,0.13179 -0.86744,-0.44435 z m 6.15378,-1.61913 1.05727,-0.55004 1.10053,-1.14014 c 0.6053,-0.62707 1.49737,-1.79351 1.98238,-2.59209 0.48502,-0.79858 1.29815,-2.00778 1.80696,-2.68711 l 0.92511,-1.23514 0.34746,-0.0103 0.34746,-0.0103 0.67521,0.79893 c 0.37137,0.43941 1.03232,0.98278 1.46879,1.2075 l 0.79358,0.40857 0.87706,-0.16381 0.87707,-0.16382 0.67446,-0.79804 0.67446,-0.79803 0.59698,-1.89039 0.59698,-1.89038 v -1.74869 -1.74869 l -0.50352,-0.55394 -0.50352,-0.55395 h -0.90152 -0.90152 l -0.52124,0.27774 -0.52125,0.27774 -0.51892,-0.16398 -0.51894,-0.16398 -0.30537,-0.56809 c -0.16795,-0.31245 -0.39451,-0.96158 -0.50345,-1.44251 l -0.19808,-0.87441 0.2556,-0.92165 0.2556,-0.92165 2.20828,-2.31993 2.20828,-2.31993 0.68302,-1.34198 0.68303,-1.34197 -0.004,-1.12717 -0.004,-1.12717 -0.20584,-0.32259 -0.20584,-0.32259 -1.58422,-0.50388 -1.58422,-0.50387 -1.18383,-0.79546 c -1.62495,-1.09185 -1.86232,-1.40562 -3.22427,-4.26214 l -1.19198,-2.5 -0.28951,-1.54991 -0.2895,-1.54991 -0.42325,-0.64312 -0.42325,-0.64313 -0.89606,-0.37275 -0.89606,-0.37276 h -0.91632 c -0.50398,0 -1.77614,-0.18007 -2.82702,-0.40016 l -1.91071,-0.40017 -2.00664,0.0492 -2.00665,0.0492 -0.56755,-0.30241 c -0.31216,-0.16633 -0.94881,-0.78168 -1.41479,-1.36744 l -0.84723,-1.06502 -0.75131,-0.386816 -0.75132,-0.386815 -1.53295,0.0035 -1.53295,0.0035 -2.51101,0.552185 c -1.38106,0.303701 -2.87537,0.584996 -3.32069,0.625096 l -0.80968,0.0729 -1.25121,1.1337 -1.2512,1.1337 -0.89207,1.46206 c -0.49063,0.80413 -1.21074,1.75783 -1.60022,2.11932 l -0.708162,0.65726 -0.948998,1.84211 -0.948997,1.8421 -0.10911,2.63304 -0.109109,2.63304 0.293139,1.08386 0.293138,1.08386 1.328721,1.71361 1.328718,1.71362 0.98282,0.6732 c 0.54055,0.37026 1.33956,0.80653 1.77557,0.96949 l 0.79275,0.29629 3.74329,-0.0842 3.74328,-0.0842 0.68423,0.63798 c 0.37633,0.35089 0.68423,0.78588 0.68423,0.96664 0,0.18076 0.54306,1.37394 1.20681,2.6515 l 1.2068,2.32283 -0.17007,3.29365 -0.17007,3.29365 0.53544,1.35249 c 0.2945,0.74386 0.72017,2.06219 0.94593,2.92962 l 0.41048,1.57714 1.29186,2.75443 1.29186,2.75443 0.62416,0.44989 0.62416,0.44989 2.11453,-0.10584 2.11454,-0.10584 z"
         id="path8036"
         sodipodi:nodetypes="ccssscccssccccccccccccccccccccccsccscccsccccccccccscsccccccccccccccccccccccccccccccssccccccccccccsscccsscccccccccccccccccsscccccccccccccsccccccccsscccsccccccsccccsccccccccccsscccsscccccscccccccc" /><path
         style="fill:#7792a5;fill-opacity:1;stroke-width:0.263737"
         d="m 120.45056,148.10347 -0.62416,-0.44989 -1.29186,-2.75443 -1.29186,-2.75443 -0.41048,-1.57714 c -0.22576,-0.86743 -0.65143,-2.18576 -0.94593,-2.92962 l -0.53544,-1.35249 0.17007,-3.29365 0.17007,-3.29365 -1.2068,-2.32283 c -0.66375,-1.27756 -1.20681,-2.47074 -1.20681,-2.6515 0,-0.18076 -0.3079,-0.61575 -0.68423,-0.96664 l -0.68423,-0.63798 -3.74328,0.0842 -3.74329,0.0842 -0.79275,-0.29629 c -0.43601,-0.16296 -1.23502,-0.59923 -1.77557,-0.96949 l -0.98282,-0.6732 -1.328718,-1.71362 -1.328721,-1.71361 -0.293138,-1.08386 -0.293139,-1.08386 0.109109,-2.63304 0.10911,-2.63304 0.948997,-1.8421 0.948998,-1.84211 0.708162,-0.65726 c 0.38948,-0.36149 1.10959,-1.31519 1.60022,-2.11932 l 0.89207,-1.46206 1.2512,-1.1337 1.25121,-1.1337 0.80968,-0.0729 c 0.44532,-0.0401 1.93963,-0.3214 3.32069,-0.625101 l 2.51101,-0.552185 1.53295,-0.0035 1.53295,-0.0035 0.75132,0.386815 0.75131,0.386816 0.84723,1.065015 c 0.46598,0.58576 1.10263,1.20111 1.41479,1.36744 l 0.56755,0.30241 2.00665,-0.0492 2.00664,-0.0492 1.91071,0.40017 c 1.05088,0.22009 2.32304,0.40016 2.82702,0.40016 h 0.91632 l 0.89606,0.37276 0.89606,0.37275 0.42325,0.64313 0.42325,0.64312 0.2895,1.54991 0.28951,1.54991 1.19198,2.5 c 1.36195,2.85652 1.59932,3.17029 3.22427,4.26214 l 1.18383,0.79546 1.58422,0.50387 1.58422,0.50388 0.20584,0.32259 0.20584,0.32259 0.004,1.12717 0.004,1.12717 -0.68303,1.34197 -0.68302,1.34198 -2.20828,2.31993 -2.20828,2.31993 -0.2556,0.92165 -0.2556,0.92165 0.19808,0.87441 c 0.10894,0.48093 0.3355,1.13006 0.50345,1.44251 l 0.30538,0.56809 0.51893,0.16398 0.51893,0.16398 0.52124,-0.27774 0.52124,-0.27774 h 0.90152 0.90152 l 0.50352,0.55395 0.50352,0.55394 v 1.7487 1.74869 l -0.59697,1.89038 -0.59699,1.89039 -0.67445,0.79803 -0.67447,0.79804 -0.87706,0.16381 -0.87707,0.16382 -0.79358,-0.40857 c -0.43646,-0.22472 -1.09742,-0.76809 -1.46879,-1.20751 l -0.6752,-0.79893 -0.34746,0.0103 -0.34746,0.0103 -0.92511,1.23514 c -0.50881,0.67933 -1.32194,1.88853 -1.80696,2.68711 -0.48501,0.79858 -1.37708,1.96502 -1.98238,2.59209 l -1.10053,1.14014 -1.05727,0.55004 -1.05727,0.55004 -2.11454,0.10584 -2.11453,0.10584 z m 3.62664,-0.36836 1.6809,-0.24195 1.02777,-0.67716 1.02777,-0.67716 1.19001,-1.62825 c 0.65451,-0.89554 1.19001,-1.77807 1.19001,-1.96118 0,-0.18311 0.33236,-0.72192 0.73858,-1.19735 l 0.73859,-0.86442 0.46544,-1.51661 0.46545,-1.51662 0.67288,-0.43896 0.67289,-0.43895 0.42269,0.26546 0.4227,0.26546 0.44069,1.79972 0.44068,1.79971 0.48203,0.35093 0.48203,0.35092 h 0.74243 0.74243 l 0.51222,-0.50997 0.51222,-0.50998 0.8358,-2.69658 0.8358,-2.69658 v -0.87842 -0.87843 l -0.429,-0.65186 -0.429,-0.65187 h -0.35404 c -0.19472,0 -0.80305,0.35527 -1.35184,0.78948 l -0.9978,0.78947 h -0.61835 -0.61836 l -0.40858,-0.62085 -0.40859,-0.62085 -0.36807,-1.75147 -0.36807,-1.75147 0.26182,-0.94407 0.26181,-0.94406 2.32487,-2.31467 2.32487,-2.31467 0.82705,-1.64782 0.82705,-1.64782 v -0.71522 -0.71522 l -0.34922,-0.28855 -0.34922,-0.28856 -1.30276,0.14614 -1.30276,0.14614 -0.45027,-0.81086 -0.45026,-0.81086 h -0.70351 -0.70352 l -0.86118,-0.93606 c -0.8959,-0.97381 -1.22701,-1.55553 -2.38803,-4.19552 l -0.6944,-1.57894 -0.085,-1.64951 -0.085,-1.6495 -0.42124,-0.64007 -0.42124,-0.64007 -0.99369,-0.27475 -0.99369,-0.27475 -1.45374,-0.005 -1.45374,-0.005 -1.56105,-0.48513 -1.56104,-0.48512 -1.23962,0.39468 -1.23962,0.39467 -1.24313,-0.47267 -1.24313,-0.47267 -0.51568,-0.65271 -0.51568,-0.6527 v -0.48476 -0.48476 l -0.62023,-0.404611 -0.62024,-0.404612 -2.80076,0.242128 c -1.54042,0.13317 -2.92737,0.320035 -3.08212,0.415255 -0.15475,0.0952 -1.0581,0.22363 -2.00744,0.28535 l -1.72608,0.11223 -1.32579,1.31997 -1.32578,1.31997 -0.38738,0.92308 -0.38739,0.92308 -1.19267,1.20449 -1.19267,1.20449 -0.802625,1.58302 -0.802627,1.58302 -0.02596,3.19716 -0.02596,3.19716 0.341766,0.63579 c 0.187972,0.34969 0.677147,0.91676 1.087058,1.26017 0.409908,0.3434 0.813348,0.83785 0.896528,1.09878 l 0.15123,0.47441 1.38272,0.92598 c 0.76049,0.50928 1.5258,1.00467 1.70068,1.10086 l 0.31798,0.17489 3.54598,-0.29403 3.54599,-0.29402 1.08315,0.55015 1.08315,0.55016 0.23593,0.45967 c 0.12975,0.25281 0.31124,0.85483 0.4033,1.33781 l 0.16737,0.87814 0.9932,1.60124 0.99321,1.60125 -0.007,1.86272 c -0.004,1.02449 -0.10913,2.5434 -0.23457,3.37535 l -0.22806,1.51264 0.68914,1.52888 c 0.37903,0.84089 0.87078,2.30865 1.09278,3.2617 l 0.40364,1.73282 0.6625,1.14671 c 0.36437,0.6307 0.79168,1.6204 0.94956,2.19935 l 0.28706,1.05263 0.55108,0.59211 0.55107,0.5921 0.6808,-0.005 c 0.37444,-0.003 1.4372,-0.11416 2.3617,-0.24724 z"
         id="path8034" /><path
         style="fill:#aad290;stroke-width:0.263737"
         d="m 128.99136,140.82425 c 0.10498,-1.50167 0.42776,-2.78897 1.07417,-4.28397 0.18774,-0.43422 0.41332,-1.009 0.50128,-1.27731 l 0.15994,-0.48783 0.43459,0.16604 0.43459,0.16603 0.8868,-0.29138 0.88679,-0.29139 0.27357,-0.50893 0.27357,-0.50893 -0.17792,-0.98315 c -0.0979,-0.54074 -0.4003,-1.44948 -0.67208,-2.01943 -0.27178,-0.56995 -0.49415,-1.2706 -0.49415,-1.55701 v -0.52075 l 0.18902,0.18819 c 0.19006,0.18922 0.65407,1.69604 1.16753,3.79142 l 0.27658,1.12873 -0.42395,0.6442 -0.42396,0.6442 -1.10121,0.55933 c -0.60567,0.30764 -1.31532,0.81245 -1.57701,1.12181 l -0.47579,0.56247 0.16278,1.15589 0.16279,1.15589 -0.28671,-0.17642 -0.28671,-0.17642 -0.29347,0.54594 c -0.1614,0.30026 -0.4021,1.04371 -0.53487,1.65211 l -0.24142,1.10617 z m 7.917,-0.40642 c -0.15933,-0.10634 -0.37,-0.52002 -0.46816,-0.9193 l -0.17846,-0.72595 0.39105,-0.75291 0.39106,-0.7529 -0.15419,-0.946 -0.15419,-0.94599 0.75993,-0.3234 c 0.41796,-0.17787 0.95628,-0.48585 1.19625,-0.68439 l 0.43631,-0.361 0.18487,0.29781 0.18487,0.29781 -0.48903,0.36886 -0.48902,0.36886 -0.57911,0.008 -0.57912,0.008 -0.15671,0.25245 -0.15671,0.25246 0.31573,0.50335 0.31573,0.50334 -0.56165,0.90479 -0.56165,0.90478 0.21318,0.77363 0.21317,0.77362 0.4647,-0.0834 0.4647,-0.0834 -0.17428,0.28076 c -0.20303,0.32705 -0.42613,0.34841 -0.82927,0.0794 z m -19.14414,-10.74675 -0.35939,-1.49157 -0.87431,-1.04188 -0.87431,-1.04189 0.0346,-2.14615 0.0346,-2.14616 0.23809,2.07716 0.2381,2.07716 0.65252,0.77207 0.65252,0.77207 0.14823,0.7034 c 0.0815,0.38687 0.32575,1.10561 0.54273,1.59719 l 0.3945,0.89378 -0.23421,0.23319 -0.23422,0.23319 z m 15.73651,-3.98008 0.3519,-1.50718 0.57865,-0.46651 0.57865,-0.46651 h 0.58394 0.58393 l 1.07883,-0.91939 1.07883,-0.91938 0.81897,-1.231 0.81896,-1.23099 v 0.32272 c 0,0.17749 -0.47622,1.0209 -1.05827,1.87425 l -1.05827,1.55155 -1.71706,0.81588 -1.71706,0.81588 v 0.33186 c 0,0.36065 -1.00512,2.53599 -1.17175,2.53599 -0.0562,0 0.0562,-0.67823 0.24975,-1.50717 z m -29.92093,-4.61668 c -0.44741,-0.32864 -1.24365,-1.15862 -1.76941,-1.84438 l -0.95594,-1.24685 v -0.39246 -0.39246 h 0.23392 c 0.12866,0 0.44216,-0.31641 0.69667,-0.70314 l 0.46274,-0.70315 -0.47446,-1.33633 -0.47446,-1.33633 -0.883,-0.9876 c -1.075404,-1.2028 -1.079364,-0.99012 0.053,-2.84602 l 0.93599,-1.53405 1.11247,-0.86398 1.11246,-0.86398 -1.39739,1.54016 c -0.76857,0.84708 -1.5663,1.86533 -1.77273,2.26278 l -0.37533,0.72262 0.92073,1.02188 0.92073,1.02188 0.16891,0.65789 0.16891,0.6579 0.41877,0.31347 0.41877,0.31347 0.66079,-0.13358 0.66079,-0.13358 -0.72687,0.61947 -0.72686,0.61946 v 0.46548 0.46548 l -0.85903,0.78814 -0.85904,0.78815 0.4279,0.24341 0.42789,0.24342 0.33008,0.79338 0.33008,0.79338 0.8913,0.54845 0.89132,0.54844 1.19613,-0.59475 1.19614,-0.59476 0.31317,0.31179 c 0.17224,0.17149 0.52727,0.3118 0.78894,0.3118 h 0.47577 v -0.21052 c 0,-0.11579 -0.12336,-0.33335 -0.27414,-0.48347 l -0.27414,-0.27293 0.25386,-0.66478 0.25386,-0.66477 0.61499,-0.16396 c 0.33825,-0.0902 0.69673,-0.16558 0.79662,-0.16755 l 0.18162,-0.004 -0.15013,0.92106 -0.15012,0.92105 h 0.84491 0.84491 l 0.53191,0.28342 0.53192,0.28342 0.4118,-0.15733 0.4118,-0.15733 -0.47489,-0.52244 -0.47489,-0.52244 0.18273,-0.18192 0.18272,-0.18193 0.73069,0.42974 0.7307,0.42974 0.38452,-0.24217 c 0.21149,-0.1332 0.65214,-0.24399 0.97923,-0.24621 l 0.59472,-0.004 v 0.37341 c 0,0.20537 -0.20815,0.76787 -0.46256,1.25 -0.2544,0.48212 -0.48197,0.91565 -0.5057,0.9634 -0.0237,0.0478 -0.32108,-0.0829 -0.66079,-0.29026 -0.33971,-0.20739 -1.297,-0.53073 -2.12733,-0.71853 l -1.50968,-0.34145 -1.22295,0.465 -1.22295,0.465 -0.90713,-0.14656 -0.90712,-0.14656 -0.91123,0.37906 c -1.17699,0.48962 -1.20786,0.48651 -2.16761,-0.21847 z m 17.67347,-14.27089 -1.35303,-1.44737 h -0.66218 -0.66217 l -0.4448,-0.67587 -0.4448,-0.67587 -0.57582,0.14389 -0.57583,0.14389 -0.50529,-0.3807 c -0.70302,-0.52968 -0.82524,-0.49699 -1.21962,0.32624 l -0.3467,0.72369 -1.00236,0.0824 -1.00236,0.0825 0.0791,-1.6614 0.0791,-1.6614 0.25035,0.13158 0.25036,0.13158 0.014,0.65306 0.014,0.65306 0.49063,0.0953 0.49063,0.0953 0.2779,-0.27669 0.27791,-0.27668 -0.3199,-0.38376 -0.31989,-0.38376 0.54255,-0.17144 0.54255,-0.17145 v -0.53673 -0.53674 l -0.39648,0.15148 -0.39647,0.15147 v -0.2549 -0.2549 h 0.51082 0.51082 l 0.16462,0.51638 0.16461,0.51637 -0.2943,0.5475 -0.2943,0.54749 0.61005,0.50633 0.61006,0.50632 0.71325,0.009 0.71326,0.009 0.713,0.65789 0.71301,0.6579 h 0.37689 c 0.20729,0 0.91361,0.31315 1.56959,0.6959 l 1.19271,0.6959 1.95377,0.0514 1.95378,0.0514 0.54716,-0.57988 0.54717,-0.57987 0.97897,-0.0267 c 0.53844,-0.0147 1.18016,-0.0604 1.42606,-0.10168 l 0.44707,-0.075 -0.0506,0.26315 -0.0506,0.26316 -0.49383,-0.0682 -0.49383,-0.0682 0.12216,0.63629 0.12217,0.63628 -0.32047,-0.12244 -0.32047,-0.12243 -0.13768,0.52417 -0.13768,0.52417 -0.5849,-0.15229 -0.58491,-0.15229 -0.20365,0.32807 -0.20365,0.32806 -0.54487,-0.29032 -0.54487,-0.29033 -0.74425,0.009 -0.74425,0.009 -0.66079,0.37608 c -0.91289,0.51957 -0.82614,0.55872 -2.33246,-1.05263 z m 2.86522,-1.45911 c -0.50655,-0.28301 -1.0645,-0.51457 -1.23991,-0.51457 -0.17541,0 -0.39884,-0.12874 -0.49651,-0.28609 l -0.17759,-0.28609 0.24026,-0.23921 0.24027,-0.23921 1.03488,0.5253 1.03488,0.5253 h 0.62429 0.62429 l -0.0885,0.4575 -0.0885,0.45751 -0.39343,0.0571 -0.39345,0.0571 z"
         id="path8032" /><path
         style="fill:#506e75;fill-opacity:1;stroke-width:0.263737"
         d="m 120.48363,147.39554 -0.55107,-0.59211 -0.28707,-1.05263 c -0.15788,-0.57895 -0.58518,-1.56865 -0.94956,-2.19935 l -0.6625,-1.14671 -0.40363,-1.73282 c -0.222,-0.95305 -0.71376,-2.42081 -1.09279,-3.2617 l -0.68914,-1.52888 0.22807,-1.51264 c 0.12543,-0.83195 0.23099,-2.35086 0.23457,-3.37535 l 0.007,-1.86272 -0.99119,-1.598 c -1.24823,-2.0124 -1.26971,-2.31699 -0.0513,-0.72782 1.08768,1.4187 1.43881,2.19443 1.69798,3.75124 l 0.18662,1.12103 -0.4785,1.37897 c -0.26318,0.75843 -0.48239,1.70856 -0.48713,2.11139 l -0.009,0.73244 0.66458,1.30574 0.66459,1.30574 0.35808,1.70076 0.35808,1.70076 0.81876,1.6558 c 0.45033,0.9107 0.88522,1.98448 0.96644,2.38618 l 0.14767,0.73038 0.52859,0.52627 0.52859,0.52627 1.77746,-0.17246 1.77747,-0.17247 0.91543,-0.37053 c 1.50271,-0.60824 3.68863,-3.10389 4.29517,-4.90375 l 0.28356,-0.84145 0.65269,-0.5383 0.65269,-0.53831 0.0102,-1.43538 0.0102,-1.43538 0.42266,-0.48853 c 0.23246,-0.26869 0.86472,-0.71316 1.40501,-0.9877 l 0.98235,-0.49917 0.30229,-0.56236 0.30229,-0.56236 -0.17391,-1.34468 c -0.0956,-0.73957 -0.3035,-1.70869 -0.46188,-2.1536 l -0.28797,-0.80893 0.1928,-1.53635 0.1928,-1.53634 2.49016,-2.43531 2.49017,-2.4353 0.80924,-1.72173 0.80924,-1.72172 -0.0859,-0.60296 -0.0859,-0.60296 -0.66079,0.0369 c -0.36343,0.0203 -1.28549,0.0795 -2.049,0.13158 l -1.38821,0.0947 -1.84219,-2.21032 -1.84219,-2.21031 -0.30813,-0.94758 c -0.16947,-0.52117 -0.65043,-1.62872 -1.0688,-2.46123 l -0.76068,-1.51364 0.0609,-1.44877 0.0609,-1.44877 -0.58122,-0.57867 -0.58122,-0.57867 -1.78839,-0.0247 -1.7884,-0.0246 -1.90438,-0.49508 -1.90438,-0.49508 -0.60663,0.3089 c -0.33365,0.16989 -0.78834,0.44057 -1.01043,0.6015 l -0.4038,0.29261 -1.88526,-0.87968 -1.88527,-0.87969 -0.15599,-0.97129 -0.156,-0.97128 -0.39063,-0.38891 -0.39063,-0.388919 -2.18634,0.122929 -2.18634,0.12292 -1.66219,0.52986 -1.66219,0.52987 -1.03522,-0.0744 -1.03521,-0.0744 -1.31469,1.34379 -1.31468,1.34378 -0.33017,1.09716 -0.33016,1.09716 -0.69716,0.35893 -0.69715,0.35893 -0.68262,1.00515 c -0.37544,0.55284 -0.976722,1.56762 -1.336175,2.25506 l -0.653551,1.24991 0.229669,1.22397 0.22967,1.22397 -0.269137,0.99512 -0.269137,0.99511 0.253357,1.12266 0.253357,1.12267 0.911274,0.80308 c 0.501203,0.4417 0.980673,1.01056 1.065503,1.26414 l 0.15422,0.46106 1.61917,1.04193 1.61916,1.04193 2.15545,-0.1488 2.15544,-0.1488 1.30348,-0.36735 c 1.65668,-0.46688 1.53494,-0.48179 2.37198,0.29055 l 0.71301,0.6579 h 0.40174 c 0.22095,0 0.57165,0.16917 0.77933,0.37594 l 0.3776,0.37593 -0.004,0.61091 c -0.002,0.33599 -0.11935,0.78853 -0.26027,1.00564 l -0.25622,0.39473 -0.004,-0.6094 c -0.002,-0.33518 -0.12697,-0.83808 -0.2772,-1.11756 l -0.27316,-0.50816 -1.08315,-0.55016 -1.08314,-0.55015 -3.54599,0.29402 -3.54599,0.29403 -0.31797,-0.17489 c -0.17489,-0.0962 -0.9402,-0.59158 -1.70069,-1.10086 l -1.38272,-0.92598 -0.15123,-0.47441 c -0.0832,-0.26093 -0.48662,-0.75538 -0.896528,-1.09878 -0.40991,-0.34341 -0.899086,-0.91048 -1.087057,-1.26017 l -0.341766,-0.63579 0.02596,-3.19716 0.02595,-3.19716 0.802628,-1.58302 0.802623,-1.58302 1.19267,-1.20449 1.19267,-1.20449 0.38739,-0.92308 0.38738,-0.92308 1.32579,-1.31997 1.32578,-1.31997 1.72608,-0.11223 c 0.94934,-0.0617 1.85269,-0.19013 2.00744,-0.28535 0.15475,-0.0952 1.5417,-0.282085 3.08212,-0.415255 l 2.80076,-0.242128 0.62024,0.404612 0.62023,0.404611 v 0.48476 0.48476 l 0.51568,0.6527 0.51568,0.65271 1.24313,0.47267 1.24313,0.47267 1.23962,-0.39467 1.23962,-0.39468 1.56104,0.48512 1.56105,0.48513 1.45374,0.005 1.45374,0.005 0.99369,0.27475 0.99369,0.27475 0.42124,0.64007 0.42124,0.64007 0.085,1.6495 0.085,1.64951 0.6944,1.57894 c 1.16102,2.63999 1.49213,3.22171 2.38803,4.19552 l 0.86118,0.93606 h 0.70352 0.70351 l 0.45026,0.81086 0.45027,0.81086 1.30276,-0.14614 1.30276,-0.14614 0.34922,0.28856 0.34922,0.28855 v 0.71522 0.71522 l -0.82705,1.64782 -0.82705,1.64782 -2.32487,2.31467 -2.32487,2.31467 -0.26181,0.94406 -0.26182,0.94407 0.36807,1.75147 0.36807,1.75147 0.40859,0.62085 0.40858,0.62085 h 0.61836 0.61835 l 0.9978,-0.78947 c 1.45421,-1.15059 2.00047,-0.9829 2.50513,0.76904 l 0.23623,0.82006 -0.21319,-0.13118 c -0.11726,-0.0721 -0.28561,-0.49171 -0.37413,-0.93234 l -0.16094,-0.80117 -0.43288,-0.16538 -0.43289,-0.16538 -0.9107,0.96107 -0.91071,0.96107 h -0.33887 c -0.18637,0 -0.56544,0.2493 -0.84238,0.55401 l -0.50352,0.55402 -0.0768,1.35388 c -0.0422,0.74463 -0.0867,1.86122 -0.0988,2.48131 l -0.022,1.12744 0.47021,0.5173 0.47021,0.5173 h 0.56931 0.5693 l 0.51013,-0.37138 0.51014,-0.37138 0.97591,-2.98388 c 0.53675,-1.64114 0.98411,-2.81938 0.99413,-2.61832 0.01,0.20106 -0.34599,1.54065 -0.79115,2.97687 l -0.80937,2.6113 -0.51221,0.50998 -0.51223,0.50997 h -0.74243 -0.74243 l -0.48203,-0.35092 -0.48203,-0.35093 -0.44068,-1.79971 -0.44069,-1.79972 -0.4227,-0.26546 -0.42269,-0.26546 -0.67289,0.43895 -0.67288,0.43896 -0.46545,1.51662 -0.46544,1.51661 -0.73859,0.86442 c -0.40622,0.47543 -0.73858,1.01424 -0.73858,1.19735 0,0.18311 -0.5355,1.06564 -1.19001,1.96118 l -1.19001,1.62825 -1.02777,0.67716 -1.02777,0.67716 -1.6809,0.24195 c -0.92449,0.13307 -1.98726,0.24433 -2.3617,0.24724 l -0.68079,0.005 z"
         id="path8030" /><path
         style="fill:#cd9e68;stroke-width:0.263737"
         d="m 121.14323,146.78393 -0.19246,-0.19162 0.42874,-0.31212 0.42874,-0.31213 -0.25626,-0.76541 -0.25626,-0.76541 -0.50266,-0.001 -0.50266,-0.001 -0.0896,-0.4596 -0.0896,-0.45961 0.3496,0.12599 0.3496,0.12599 0.66079,-0.52511 0.6608,-0.52511 -0.40777,0.14226 -0.40776,0.14226 -1.04598,-0.21523 -1.04598,-0.21524 -0.31548,-0.9104 c -0.17351,-0.50073 -0.32219,-1.31351 -0.3304,-1.80618 l -0.0149,-0.89588 -0.96192,-1.71255 -0.96193,-1.71254 0.44538,-0.32424 0.44538,-0.32425 -0.17338,-0.68779 -0.17339,-0.68778 0.42562,-0.64672 c 0.23408,-0.3557 0.42561,-0.87323 0.42561,-1.15007 v -0.50336 l 0.39356,-0.32519 0.39357,-0.3252 -0.15413,-0.2483 -0.15413,-0.2483 0.17803,-0.70624 0.17804,-0.70624 0.76485,0.91857 0.76484,0.91856 0.007,-0.85526 0.007,-0.85526 h 0.33767 c 0.18571,0 0.60517,0.18655 0.93213,0.41456 l 0.59447,0.41455 1.11632,-0.24868 c 0.61398,-0.13677 1.28421,-0.29372 1.48941,-0.34877 l 0.37307,-0.10008 0.15556,0.59793 0.15556,0.59794 0.621,-0.43382 0.62099,-0.43382 -0.19822,-1.4799 c -0.24195,-1.80633 -0.19911,-2.68929 0.1472,-3.03408 l 0.26277,-0.26162 v -0.69606 -0.69605 l 0.50665,-0.4565 0.50665,-0.4565 0.53458,0.28484 0.53458,0.28485 0.1638,-0.26387 0.16379,-0.26387 h 0.6148 0.6148 l 0.43296,0.65789 0.43297,0.6579 h 0.38108 0.38109 l 0.27361,0.50902 0.27362,0.50901 v 1.31116 1.31116 l 0.24255,0.0877 0.24255,0.0877 -0.14061,0.72062 -0.14062,0.72061 -0.22284,-0.13711 -0.22283,-0.13712 -0.47375,0.86387 c -0.26056,0.47513 -0.5371,1.15992 -0.61454,1.52176 l -0.14079,0.6579 -0.45399,-0.0773 -0.45398,-0.0773 v 0.91705 0.91706 l 0.26431,0.16264 c 0.14538,0.0894 0.26432,0.3471 0.26432,0.57254 v 0.4099 l -0.59471,-0.18781 c -0.3271,-0.10329 -0.8326,-0.19864 -1.12335,-0.21189 -0.29075,-0.0132 -0.60037,-0.12863 -0.68805,-0.25641 l -0.15942,-0.23231 -0.96393,0.90511 c -0.53016,0.49782 -0.96393,1.03917 -0.96393,1.203 v 0.29787 h 0.25502 c 0.14026,0 0.37393,-0.22122 0.51927,-0.4916 l 0.26426,-0.49161 0.73623,0.13123 c 0.40493,0.0722 0.94438,0.31175 1.19879,0.53239 l 0.46255,0.40116 v 0.48174 0.48175 l -1.5859,0.79705 -1.5859,0.79705 v 0.25937 0.25937 h 0.39272 0.39273 l 0.63409,0.98684 0.63409,0.98684 0.15008,0.82577 0.15008,0.82577 -0.51773,0.46648 -0.51772,0.46647 -0.1548,-0.15412 -0.1548,-0.15413 0.34161,-0.94058 0.34162,-0.94058 -0.25895,-0.25782 -0.25896,-0.25782 -1.32828,0.15663 -1.32829,0.15663 -0.90904,0.73867 -0.90904,0.73866 0.20095,0.20007 0.20096,0.20008 0.31277,-0.31141 c 0.31384,-0.31245 1.26432,-0.43782 1.26432,-0.16675 0,0.32277 -0.78512,1.62654 -1.172,1.94621 -0.22765,0.1881 -0.4139,0.46016 -0.4139,0.60457 v 0.26256 l 1.59166,-0.11462 1.59166,-0.11463 -0.0862,0.28037 c -0.0474,0.1542 -0.49606,0.47739 -0.99695,0.7182 l -0.91072,0.43785 -1.85188,0.17453 -1.85189,0.17453 z m -0.99182,-6.301 0.25303,-0.66262 0.66554,-0.25192 0.66553,-0.25193 v -0.61854 -0.61853 l -0.63831,-0.59703 -0.6383,-0.59703 -0.58321,0.1843 -0.58321,0.18429 0.16424,1.19306 c 0.0903,0.65619 0.16425,1.53181 0.16425,1.94581 0,0.92912 0.19725,0.96263 0.53044,0.0901 z m 1.29622,-6.77349 c 0.23102,-0.32462 0.40814,-0.67903 0.39361,-0.78759 -0.0145,-0.10855 -0.0443,-0.42579 -0.0661,-0.70497 l -0.0396,-0.50761 -0.85903,0.018 c -0.47247,0.01 -1.11519,-0.0685 -1.42826,-0.17434 l -0.56924,-0.19239 -0.14354,0.48459 c -0.079,0.26652 -0.22077,0.91893 -0.31515,1.44981 l -0.17159,0.96524 0.62006,0.1264 c 0.34103,0.0695 0.96628,0.0784 1.38945,0.0197 l 0.76939,-0.10668 z m 4.66479,-1.27336 0.17903,-0.28842 -0.41799,-0.41615 -0.41798,-0.41615 -0.71077,0.32242 -0.71076,0.32243 0.23844,0.22502 c 0.20392,0.19242 0.78756,0.39327 1.47836,0.50873 0.10045,0.0168 0.2632,-0.0993 0.36167,-0.25788 z m 5.61598,-5.10935 c 0.0479,-0.28782 0.25784,-0.89736 0.46655,-1.35455 l 0.37948,-0.83125 -0.14018,-0.36371 -0.14018,-0.36371 -0.76892,-0.28896 -0.76891,-0.28896 0.0138,0.99888 c 0.008,0.54938 -0.059,1.11617 -0.14795,1.25952 l -0.1618,0.26065 0.16652,0.82898 0.16653,0.82898 0.42397,-0.0813 0.42398,-0.0813 0.0871,-0.52329 z m -3.17077,-1.24698 0.082,-0.98684 h -0.39356 c -0.21645,0 -0.58046,0.18609 -0.8089,0.41353 l -0.41536,0.41354 v 0.46365 c 0,0.25502 0.0843,0.54761 0.18736,0.6502 l 0.18737,0.18654 0.53951,-0.0769 0.53951,-0.0769 z m 1.68739,-0.33609 0.30434,-0.66503 -0.29224,-0.29096 -0.29225,-0.29097 -0.42023,0.16056 c -0.23113,0.0883 -0.48974,0.34087 -0.57468,0.56126 l -0.15445,0.4007 0.15215,0.39474 0.15214,0.39474 h 0.41044 0.41044 z m 7.59532,14.34925 c -0.019,-0.21711 -0.0672,-1.16448 -0.10699,-2.10527 l -0.0724,-1.71052 0.95297,-0.82085 0.95297,-0.82084 -0.32863,-0.39424 -0.32863,-0.39424 0.36887,-0.30479 0.36886,-0.30479 0.13696,0.35534 0.13696,0.35533 -0.29164,1.26887 -0.29164,1.26886 -0.43838,0.11414 -0.43838,0.11413 0.0169,1.36049 0.0169,1.36048 -0.31008,0.52632 -0.31008,0.52631 -0.0346,-0.39473 z m -5.97622,-18.35527 -1.08372,-0.98684 -0.17679,-1.07332 -0.17679,-1.07333 0.45479,-0.37404 0.45479,-0.37405 0.61806,-1.38908 0.61805,-1.38908 v -0.66592 -0.66592 l 0.26432,0.16264 0.26432,0.16264 v 0.85522 0.85523 l -0.38807,0.51082 c -0.21344,0.28095 -0.39185,0.67728 -0.39648,0.88072 -0.005,0.20344 -0.29378,0.74241 -0.64259,1.1977 l -0.63417,0.82781 0.13635,0.71019 0.13636,0.71019 h 0.22281 c 0.12254,0 0.50292,0.30077 0.84528,0.66837 l 0.62247,0.66836 0.4037,-0.15424 0.40371,-0.15423 0.58734,-1.04045 0.58733,-1.04044 h 0.64388 0.64388 v -0.41247 -0.41247 l -0.46255,0.12843 c -0.25441,0.0706 -0.72207,0.20246 -1.03926,0.29294 l -0.5767,0.1645 -0.18316,-1.21604 -0.18316,-1.21604 0.2973,-0.296 0.29731,-0.29601 v 0.72606 0.72606 l 0.23663,-0.1456 0.23662,-0.1456 0.15155,0.39323 0.15156,0.39322 h 0.51491 0.5149 l 0.0936,0.27958 0.0936,0.27958 0.65529,-0.24688 c 0.36042,-0.13579 1.27975,-0.33192 2.04296,-0.43585 l 1.38767,-0.18897 -0.004,0.35364 c -0.002,0.1945 -0.11935,0.53127 -0.26028,0.74838 l -0.25622,0.39473 -0.004,-0.51316 -0.004,-0.51315 -0.31718,0.31579 -0.31718,0.31579 h -0.69401 -0.69401 l -0.62079,0.65789 -0.62078,0.65789 h -0.75254 -0.75255 l -0.30976,0.72369 c -0.17037,0.39803 -0.4836,0.93092 -0.69609,1.18421 l -0.38633,0.46053 h -0.43217 -0.43217 z m -16.56971,0.25323 -0.13459,-0.21682 0.32084,-0.6432 0.32084,-0.64321 0.99202,-0.24558 0.99202,-0.24557 0.71948,0.25191 0.71948,0.25192 v 0.3884 0.3884 l -1.13936,-0.0724 -1.13936,-0.0724 -0.75839,0.53765 -0.75838,0.53765 z m 8.13078,-5.25323 -0.48566,-0.72368 0.104,-0.26316 c 0.0572,-0.14474 0.11338,-0.61842 0.12486,-1.05263 l 0.0209,-0.78947 h 0.39647 0.39648 l -0.063,0.5921 -0.063,0.59211 h 0.87794 c 0.48287,0 0.95406,0.0758 1.04708,0.16839 l 0.16914,0.16839 -0.80809,1.01582 c -0.96262,1.21008 -1.08694,1.23123 -1.71716,0.29213 z m -3.45088,-4.32414 -0.57177,-0.27537 -0.14462,-0.5506 c -0.17501,-0.66632 -0.27084,-0.5957 1.08992,-0.80322 l 1.12335,-0.17131 v 0.73995 0.73996 l -0.31718,0.31579 c -0.3702,0.36857 -0.4239,0.36879 -1.1797,0.005 z m -7.35553,-1.62855 -0.43722,-0.3183 0.0853,-1.03907 0.0854,-1.03908 0.99591,-0.15977 0.99592,-0.15976 1.31686,0.62746 1.31686,0.62746 v 0.54898 0.54898 l -0.83079,-0.16543 -0.83079,-0.16542 -0.29256,0.22593 c -0.16091,0.12426 -0.66946,0.35202 -1.13011,0.50612 l -0.83755,0.2802 z m -9.03489,-5.00999 c 0.0979,-0.25407 0.17805,-0.69609 0.17805,-0.98226 v -0.52033 l 0.27594,0.16979 0.27594,0.1698 0.62913,-0.41041 0.62912,-0.41041 0.17001,-0.53333 0.17002,-0.53332 h 0.40694 0.40695 l -0.13837,-0.35899 -0.13836,-0.35899 1.86923,-0.17297 1.86923,-0.17296 0.28931,-0.3585 0.28932,-0.35849 1.75224,-0.16626 1.75224,-0.16626 0.16045,0.59618 c 0.0883,0.3279 0.16207,0.685 0.16406,0.79355 l 0.004,0.19737 h -0.49299 -0.49299 l -0.67205,-0.52632 -0.67205,-0.52631 -0.48695,0.004 c -0.26781,0.002 -0.66535,0.11882 -0.88342,0.25913 l -0.39647,0.25509 0.57911,0.004 c 0.31852,0.002 0.64065,0.10316 0.71585,0.2243 l 0.13674,0.22028 -0.40292,0.57272 -0.40292,0.57273 -0.97521,0.49533 c -0.53637,0.27243 -1.50978,0.63575 -2.16315,0.80737 -0.65337,0.17162 -1.42583,0.4613 -1.71658,0.64373 -0.29074,0.18243 -0.84467,0.40912 -1.23095,0.50377 -0.38627,0.0947 -0.91243,0.25236 -1.16923,0.35047 l -0.46692,0.17839 z m 3.02334,-1.59599 0.98731,-0.91393 -0.56828,-0.007 -0.56828,-0.007 -0.92511,0.92105 -0.92511,0.92106 h 0.50608 0.50608 z"
         id="path8028" /><path
         style="fill:#768b92;stroke-width:0.263737"
         d="m 120.69164,147.21151 -0.52859,-0.52627 -0.14767,-0.73038 c -0.0812,-0.4017 -0.51611,-1.47548 -0.96644,-2.38618 l -0.81876,-1.6558 -0.35808,-1.70076 -0.35808,-1.70076 -0.66459,-1.30574 -0.66458,-1.30574 0.009,-0.73244 c 0.005,-0.40283 0.22395,-1.35296 0.48713,-2.11139 l 0.4785,-1.37897 -0.18662,-1.12103 c -0.25916,-1.55679 -0.6103,-2.33254 -1.69789,-3.75111 l -0.93978,-1.22579 0.16379,-1.0198 0.16379,-1.01981 -0.40932,-0.40753 c -0.22513,-0.22414 -0.59011,-0.40752 -0.81106,-0.40752 h -0.40174 l -0.71301,-0.6579 c -0.83704,-0.77234 -0.7153,-0.75743 -2.37198,-0.29055 l -1.30348,0.36735 -2.15544,0.1488 -2.15545,0.1488 -1.61916,-1.04193 -1.61917,-1.04193 -0.15422,-0.46106 c -0.0848,-0.25358 -0.58669,-0.85135 -1.115262,-1.32837 l -0.961033,-0.8673 0.99297,0.5654 0.992975,0.5654 0.15312,0.60743 0.15313,0.60743 1.60829,0.98833 c 0.88455,0.54359 1.73665,0.97854 1.89354,0.96655 0.1569,-0.012 0.99892,-0.0428 1.87117,-0.0685 l 1.5859,-0.0467 1.13259,-0.37007 c 0.62292,-0.20353 1.43835,-0.37006 1.81206,-0.37006 h 0.67948 l 0.78531,0.65789 0.78531,0.6579 h 0.47599 0.47599 l 0.33903,0.40671 0.33903,0.40671 0.35413,-0.13529 0.35412,-0.1353 v 0.64138 0.64137 l -0.39647,-0.15147 -0.39648,-0.15148 v 0.26979 c 0,0.14839 -0.0672,0.4442 -0.14938,0.65737 l -0.14938,0.38757 0.81105,0.91968 c 0.44607,0.50582 0.99266,1.35246 1.21465,1.8814 l 0.4036,0.96172 0.22627,-0.13923 0.22626,-0.13922 0.13747,0.52335 0.13746,0.52336 h -0.23957 c -0.35328,0 -0.29332,0.46559 0.19075,1.48121 l 0.43033,0.90287 -0.37922,0.4527 c -0.52131,0.62232 -1.01007,1.815 -1.01007,2.46479 v 0.53996 l 0.88614,1.61871 0.88613,1.61871 0.1521,1.32623 0.1521,1.32623 1.09926,2.02903 1.09927,2.02903 h -0.28728 -0.28728 v 0.35395 0.35395 l 0.51439,0.46348 0.5144,0.46348 1.26974,-0.2862 c 0.69837,-0.15741 1.70326,-0.35065 2.2331,-0.42942 l 0.96334,-0.14321 1.01904,-0.8041 1.01903,-0.80411 1.0091,-1.86269 1.00909,-1.86269 0.64289,-0.50348 0.64289,-0.50347 v -1.50137 -1.50136 l 0.57183,-0.48747 c 0.31452,-0.26812 0.95808,-0.71436 1.43015,-0.99167 0.47206,-0.2773 0.92466,-0.67636 1.00576,-0.8868 l 0.14747,-0.38261 h -0.20294 -0.20295 l 0.10035,-0.85583 0.10036,-0.85582 -0.4066,-1.17498 -0.40659,-1.17497 0.22819,-0.14042 0.2282,-0.14041 0.0506,-1.05247 c 0.0278,-0.57885 0.0391,-1.20748 0.025,-1.39694 l -0.0256,-0.34448 -0.23967,0.14747 -0.23966,0.14747 0.15383,-0.58568 0.15383,-0.58568 0.11219,0.33509 0.11219,0.33509 2.74898,-2.79727 2.74897,-2.79727 0.002,-0.43935 c 8.5e-4,-0.24163 0.23795,-0.7946 0.52678,-1.22881 0.28884,-0.43421 0.52594,-0.98327 0.5269,-1.22013 l 0.002,-0.43066 -0.83248,-0.12165 -0.83248,-0.12164 -0.74193,0.3685 -0.74193,0.3685 -0.66198,-0.43184 -0.66198,-0.43185 -0.16028,-0.50277 c -0.0883,-0.27653 -0.26161,-0.50278 -0.38533,-0.50278 -0.12372,0 -0.49575,-0.44407 -0.82673,-0.98684 -0.33097,-0.54276 -0.78267,-1.09586 -1.00377,-1.2291 -0.2211,-0.13325 -0.67366,-0.51273 -1.00569,-0.8433 l -0.60368,-0.60104 v -0.76595 -0.76595 l -0.52864,-0.6691 c -0.29074,-0.368 -0.52863,-0.81765 -0.52863,-0.99921 0,-0.18156 -0.31832,-0.87341 -0.70739,-1.53744 l -0.70739,-1.20733 0.41954,0.34173 0.41954,0.34172 0.17729,-0.28559 0.17728,-0.28559 -0.17698,-1.04298 -0.17699,-1.04297 h -0.37324 -0.37325 v -0.23247 -0.23246 l -0.59471,-0.15695 -0.59471,-0.15694 -1.45375,0.2832 -1.45374,0.28321 -1.05303,-0.52618 -1.05302,-0.52619 -0.90637,0.0839 -0.90637,0.0839 -0.23435,0.41694 -0.23436,0.41694 h -0.39894 -0.39895 l 0.16336,0.26316 0.16336,0.26315 h -0.27992 -0.27991 v -0.39473 -0.39474 h -0.36412 c -0.20026,0 -0.51348,-0.17919 -0.69605,-0.39821 -0.18257,-0.21902 -0.46475,-0.38262 -0.62708,-0.36356 -0.16232,0.0191 -0.56977,0.0206 -0.90545,0.003 l -0.61031,-0.0312 0.14941,-0.24068 0.1494,-0.24069 -0.3218,-0.10679 -0.3218,-0.1068 -0.27643,-1.29726 -0.27642,-1.29726 -0.26245,0.0115 c -0.14435,0.006 -1.45188,0.10822 -2.90563,0.22643 l -2.64317,0.21492 -0.82415,0.49726 -0.82415,0.49726 h -1.07012 -1.07012 l -0.14615,-0.32895 -0.14615,-0.32894 -0.33843,0.51477 c -0.18614,0.28312 -0.725,0.86741 -1.19747,1.29842 l -0.85903,0.78365 v 0.84537 0.84537 l -0.9343,0.81674 c -0.51387,0.4492 -1.08294,0.81673 -1.2646,0.81673 h -0.33029 l -0.45347,0.76429 c -0.2494,0.42036 -0.45346,0.91247 -0.45346,1.09358 0,0.18111 -0.31152,0.73592 -0.692262,1.23291 l -0.692261,0.90362 0.146093,1.48964 0.146093,1.48964 -0.351227,1.05264 -0.351227,1.05263 -0.02624,-0.39474 c -0.01443,-0.2171 0.09215,-0.81907 0.236855,-1.33769 l 0.263095,-0.94295 -0.230462,-1.2282 -0.230462,-1.22819 0.653551,-1.24991 c 0.359454,-0.68744 0.960734,-1.70222 1.336174,-2.25506 l 0.68262,-1.00515 0.69716,-0.35893 0.69715,-0.35893 0.33017,-1.09716 0.33016,-1.09716 1.31468,-1.34378 1.31469,-1.34379 1.03521,0.0744 1.03522,0.0744 1.66219,-0.52987 1.66219,-0.52986 2.18634,-0.12292 2.18634,-0.122929 0.39063,0.388919 0.39063,0.38891 0.156,0.97128 0.15599,0.97129 1.88527,0.87969 1.88526,0.87968 0.4038,-0.2926 c 0.22209,-0.16094 0.67678,-0.43162 1.01043,-0.60151 l 0.60663,-0.3089 1.90438,0.49508 1.90438,0.49508 1.7884,0.0246 1.78839,0.0247 0.58122,0.57867 0.58122,0.57867 -0.0609,1.44877 -0.0609,1.44877 0.76068,1.51364 c 0.41837,0.83251 0.89933,1.94006 1.0688,2.46123 l 0.30813,0.94758 1.84219,2.21031 1.84219,2.21032 1.38821,-0.0947 c 0.76351,-0.0521 1.68557,-0.11129 2.049,-0.13158 l 0.66079,-0.0369 0.0859,0.60296 0.0859,0.60296 -0.80924,1.72172 -0.80925,1.72173 -2.49016,2.4353 -2.49017,2.43531 -0.19279,1.53634 -0.1928,1.53635 0.28796,0.80893 c 0.15839,0.44491 0.36623,1.41403 0.46189,2.1536 l 0.17391,1.34468 -0.30229,0.56236 -0.30229,0.56236 -0.98235,0.49917 c -0.5403,0.27454 -1.17255,0.71901 -1.40501,0.9877 l -0.42266,0.48853 -0.0102,1.43538 -0.0102,1.43538 -0.65268,0.53831 -0.65269,0.5383 -0.28357,0.84145 c -0.60653,1.79986 -2.79246,4.29551 -4.29516,4.90375 l -0.91544,0.37053 -1.77746,0.17247 -1.77746,0.17246 -0.52859,-0.52627 z m 15.45735,-6.58327 -0.47021,-0.5173 0.022,-1.12744 c 0.0121,-0.62009 0.0566,-1.73668 0.0988,-2.48131 l 0.0768,-1.35388 0.50352,-0.55402 c 0.27695,-0.30471 0.65602,-0.55401 0.84239,-0.55401 h 0.33887 l 0.91071,-0.96107 0.9107,-0.96107 0.41107,0.15705 0.41107,0.15704 0.262,0.94474 0.262,0.94473 -0.93022,2.95139 -0.93023,2.9514 -0.53403,0.46052 -0.53403,0.46053 h -0.59054 -0.59055 z m 1.90988,-0.33796 c 0.1456,-0.18093 0.52786,-1.09869 0.84946,-2.03948 0.3216,-0.94079 0.7626,-2.04225 0.97999,-2.44769 l 0.39527,-0.73716 -0.1799,-1.30231 -0.1799,-1.30231 h -0.38397 -0.38396 l -0.45027,0.78847 -0.45026,0.78847 -0.85903,0.40808 c -0.47246,0.22445 -0.85903,0.45206 -0.85903,0.5058 0,0.0537 -0.0797,0.30445 -0.17708,0.55714 l -0.17707,0.45943 0.26275,-0.16167 0.26274,-0.16168 -0.0919,1.10535 c -0.0506,0.60794 -0.16009,1.47661 -0.24338,1.93039 l -0.15143,0.82504 0.29917,0.55654 0.29916,0.55653 h 0.48697 0.48697 z"
         id="path8026" /><path
         style="fill:#be7445;stroke-width:0.263737"
         d="m 123.85005,145.14805 c 0,-0.13962 0.18625,-0.40776 0.4139,-0.59586 0.38688,-0.31967 1.172,-1.62344 1.172,-1.94621 0,-0.27107 -0.95048,-0.1457 -1.26432,0.16675 l -0.31277,0.31141 -0.20096,-0.20008 -0.20095,-0.20007 0.90904,-0.73866 0.90904,-0.73867 1.32829,-0.15663 1.32828,-0.15663 0.25896,0.25782 0.25895,0.25782 -0.31735,0.87377 c -0.17455,0.48058 -0.31736,0.96686 -0.31736,1.08062 v 0.20684 l 0.39463,-0.15077 0.39462,-0.15076 -0.61644,0.96974 -0.61643,0.96973 -1.76057,0.0968 -1.76056,0.0969 z m -4.22908,-4.75526 c 0,-0.414 -0.0739,-1.28962 -0.16425,-1.94581 l -0.16424,-1.19306 0.58321,-0.18429 0.58321,-0.1843 0.6383,0.59703 0.63831,0.59703 v 0.61853 0.61854 l -0.66553,0.25193 -0.66554,0.25192 -0.25303,0.66262 c -0.33319,0.87249 -0.53044,0.83898 -0.53044,-0.0901 z m -0.75221,-6.00618 -0.62006,-0.1264 0.17159,-0.96523 c 0.0944,-0.53088 0.23619,-1.18329 0.31515,-1.44982 l 0.14354,-0.48458 0.56924,0.19239 c 0.31307,0.10581 0.95579,0.18426 1.42826,0.17434 l 0.85903,-0.018 0.0396,0.50761 c 0.0218,0.27918 0.0515,0.59642 0.0661,0.70497 0.0145,0.10856 -0.16259,0.46297 -0.39361,0.78759 l -0.42003,0.59022 -0.76939,0.10668 c -0.42317,0.0587 -1.04842,0.0498 -1.38945,-0.0197 z m 6.17071,-1.84977 c -0.29074,-0.0696 -0.63593,-0.22786 -0.76708,-0.35161 l -0.23844,-0.22502 0.71076,-0.32243 0.71077,-0.32242 0.41798,0.41615 0.41799,0.41615 -0.17903,0.28842 c -0.1874,0.30188 -0.22021,0.30497 -1.07295,0.10076 z m 5.58739,-5.35322 -0.16653,-0.82898 0.1618,-0.26065 c 0.089,-0.14335 0.15557,-0.71014 0.14795,-1.25952 l -0.0138,-0.99888 0.76892,0.28896 0.76891,0.28896 0.14018,0.36371 0.14018,0.36371 -0.37947,0.83125 c -0.20872,0.45719 -0.41866,1.06673 -0.46655,1.35455 l -0.0871,0.52329 -0.42398,0.0813 -0.42397,0.0813 -0.16653,-0.82898 z m -3.41765,-0.14979 c -0.10305,-0.10259 -0.18736,-0.39518 -0.18736,-0.6502 v -0.46365 l 0.41536,-0.41354 c 0.22844,-0.22744 0.59245,-0.41353 0.8089,-0.41353 h 0.39356 l -0.082,0.98684 -0.082,0.98684 -0.53951,0.0769 -0.53951,0.0769 z m 5.1484,-5.75671 c -0.316,-0.36184 -0.68042,-0.6579 -0.8098,-0.6579 h -0.23526 l -0.13636,-0.71019 -0.13635,-0.71019 0.63417,-0.82781 c 0.34881,-0.45529 0.63797,-0.99426 0.64259,-1.1977 0.005,-0.20344 0.18304,-0.59977 0.39648,-0.88072 l 0.38807,-0.51082 0.0208,-0.67339 0.0209,-0.67339 0.14678,0.39474 c 0.0807,0.2171 0.27529,0.55593 0.43237,0.75295 l 0.28558,0.35821 0.0202,1.53856 c 0.0111,0.84621 0.0893,1.6074 0.17383,1.69154 l 0.15365,0.15297 1.14676,-0.39335 c 0.63072,-0.21635 1.20096,-0.3394 1.26721,-0.27344 0.0663,0.066 -0.0183,0.11993 -0.18788,0.11993 h -0.30838 v 0.39473 0.39474 h -0.654 -0.65401 l -0.3971,0.76454 c -0.86715,1.66954 -1.38484,1.89111 -2.21023,0.94599 z m -26.82474,-17.10527 0.92511,-0.92105 0.56828,0.007 0.56828,0.007 -0.98731,0.91394 -0.98731,0.91393 h -0.50608 -0.50608 z"
         id="path8024" /><path
         style="fill:#6a9d69;stroke-width:0.263737"
         d="m 129.17239,141.59761 -0.036,-0.73213 0.39094,-0.93154 0.39093,-0.93154 0.30552,0.18799 0.30551,0.18798 -0.16279,-1.15589 -0.16278,-1.15589 0.47579,-0.56247 c 0.26169,-0.30936 0.96501,-0.81096 1.56294,-1.11466 0.59793,-0.30371 1.16171,-0.6723 1.25284,-0.81911 0.0911,-0.1468 0.30735,-0.26317 0.48049,-0.2586 l 0.3148,0.008 -0.74162,0.64958 c -0.40788,0.35727 -0.89006,0.64958 -1.07149,0.64958 h -0.32989 l -0.851,0.87416 -0.85099,0.87415 0.43076,1.02643 0.43076,1.02643 -0.93418,0.79679 -0.93417,0.79678 -0.11519,0.65789 -0.11519,0.6579 z m 4.74258,-15.37075 -0.0209,-0.57658 0.26432,-0.16264 0.26431,-0.16264 v -0.4877 -0.4877 l 1.78239,-0.87835 1.78239,-0.87834 0.65514,-1.00898 0.65513,-1.00897 0.0956,0.28545 0.0956,0.28545 -0.84516,1.06243 -0.84516,1.06242 -0.96106,0.4933 -0.96106,0.4933 -0.82658,0.87833 c -0.45462,0.48307 -0.89127,1.05595 -0.97032,1.27306 l -0.14375,0.39473 -0.0209,-0.57657 z m -18.58101,-3.69455 -0.15059,-0.57333 -0.75477,-0.16743 c -0.41512,-0.0921 -1.25218,-0.41865 -1.86014,-0.72572 l -1.10537,-0.55829 -1.48654,0.61343 -1.48653,0.61343 -1.0137,-0.16138 -1.0137,-0.16139 -0.92609,0.38525 -0.92609,0.38524 -1.05672,-0.71566 -1.05673,-0.71566 -0.91865,-1.20691 -0.91864,-1.20691 -0.33251,-1.02993 c -0.18289,-0.56646 -0.505378,-1.22732 -0.716648,-1.46857 l -0.384125,-0.43863 0.285384,-0.53091 0.285384,-0.53091 v -0.85388 c 0,-0.46963 -0.142809,-1.24707 -0.317353,-1.72765 l -0.317353,-0.87378 0.333013,-0.32912 0.333012,-0.32911 -0.167461,0.43812 -0.167461,0.43812 0.902638,1.00924 0.90264,1.00925 0.47446,1.33633 0.47446,1.33633 -0.46274,0.70315 c -0.25451,0.38673 -0.56801,0.70314 -0.69667,0.70314 h -0.23392 v 0.39246 0.39246 l 0.95835,1.25228 c 0.52708,0.68875 1.35709,1.5358 1.84445,1.88232 l 0.88611,0.63005 1.12911,-0.41853 1.12912,-0.41852 0.74969,0.15244 0.74969,0.15245 1.37866,-0.46657 1.37867,-0.46657 1.69493,0.42826 1.69492,0.42825 0.63557,0.63278 0.63557,0.63278 -0.11737,0.35057 -0.11737,0.35057 z m 6.19212,-16.50016 -0.98,-0.50813 0.66079,-0.16433 0.6608,-0.16433 -0.0827,-0.57754 -0.0827,-0.57754 h 0.25265 c 0.13896,0 0.32112,0.17763 0.4048,0.39473 l 0.15214,0.39474 h 0.3426 c 0.18844,0 0.80047,0.24432 1.36008,0.54294 l 1.01746,0.54293 0.36629,-0.13994 0.36628,-0.13994 v -0.35628 -0.35628 l 1.9074,-0.051 1.90741,-0.051 -0.31269,0.31132 -0.31269,0.31131 -0.86784,-0.01 -0.86784,-0.01 -0.61601,0.55793 -0.61601,0.55794 h -1.84011 -1.84012 l -0.98,-0.50813 z m -8.41034,-2.89447 -0.15926,-0.41319 0.16369,-0.42469 0.16369,-0.42469 0.59146,0.391 0.59147,0.39099 v 0.36264 0.36264 l -0.5959,0.0842 -0.59589,0.0842 z"
         id="path8022" /><path
         style="fill:#5f7469;stroke-width:0.263737"
         d="m 130.79036,138.22875 -0.3284,-0.87804 0.84281,-0.86574 0.84281,-0.86575 h 0.32435 c 0.17839,0 0.69077,-0.30698 1.13864,-0.68218 l 0.81429,-0.68218 -0.16525,0.42876 -0.16525,0.42875 -0.69485,0.36023 c -0.38216,0.19813 -1.01434,0.63783 -1.40483,0.97711 l -0.71,0.61688 -0.0829,1.0201 -0.083,1.02009 z m 2.46888,-9.21789 -0.17379,-1.08204 0.31492,-0.37778 0.31491,-0.37778 0.15895,0.25607 0.15896,0.25606 -0.0962,1.20376 -0.0962,1.20376 h -0.20392 -0.20392 z m -18.66029,-6.1548 -0.32905,-0.39473 h -0.47599 -0.47599 l -0.82482,-0.691 -0.82482,-0.691 -1.11176,0.13445 -1.11176,0.13443 0.79295,-0.35262 c 1.0642,-0.47325 1.35066,-0.4599 2.47503,0.11536 0.5286,0.27044 1.31792,0.59849 1.75405,0.72898 l 0.79295,0.23725 0.0845,0.58681 0.0845,0.58681 h -0.25033 c -0.13769,0 -0.39841,-0.17763 -0.57938,-0.39474 z m -12.99032,-2.51637 -0.43086,-0.24006 -0.15987,-0.63422 -0.15988,-0.63421 -0.88802,-0.52165 -0.888016,-0.52164 -0.166434,-1.03626 -0.166435,-1.03626 0.25182,-0.87419 0.251819,-0.87419 -0.137823,-1.6081 -0.137823,-1.60811 0.410039,0.88548 0.410038,0.88547 v 0.90814 0.90814 l -0.285384,0.53091 -0.285384,0.53091 0.384125,0.43863 c 0.21127,0.24125 0.536848,0.91232 0.723498,1.49127 l 0.33937,1.05263 0.79547,0.98674 c 0.82715,1.02604 0.87842,1.38214 0.13975,0.97057 z m 14.57622,-17.08351 -0.39648,-0.24972 -0.003,-1.30214 -0.003,-1.30214 0.18633,0.11466 c 0.10249,0.0631 0.26645,0.64658 0.36438,1.29671 l 0.17804,1.18205 0.43194,0.25118 0.43195,0.25117 -0.39648,0.004 c -0.21806,0.002 -0.57489,-0.1084 -0.79295,-0.24575 z"
         id="path8020" /><path
         style="font-variation-settings:normal;opacity:0.34969325;fill:#8a9696;fill-opacity:0.368421;stroke:#99a7be;stroke-width:1.085;stroke-linecap:square;stroke-linejoin:miter;stroke-miterlimit:3.7;stroke-dasharray:none;stroke-dashoffset:0;stroke-opacity:0.708511;paint-order:markers fill stroke;stop-color:#000000;stop-opacity:1"
         d="m 131.6776,92.50745 -0.41906,5.866891 -0.23947,1.975579 -1.13745,3.11305 1.55652,1.67625 2.09532,-0.89799 2.39464,3.17291 c 0,0 0.4939,2.06538 0.61363,2.30485 0.11974,0.23946 0.16463,2.66405 0.46396,3.02324 0.29933,0.3592 0.83813,2.57425 0.83813,2.57425 l 2.99331,-2.15519 2.93345,-1.07759 2.27492,-1.67626 1.85585,-0.71839 3.65184,-4.19063 0.0599,-2.45452 c 0,0 -0.84841,-1.39143 -1.01773,-1.13743 -0.3592,0.53883 -2.27492,1.73613 -2.27492,1.73613 0,0 -3.37872,-1.45822 -3.81089,-2.55795 -0.12944,-0.32937 1.03417,-1.750658 1.07444,-2.109878 0.0403,-0.35921 3.23274,1.147948 3.35115,0.833673 0.11842,-0.314271 4.90952,0.343925 5.09917,-0.316255 0.061,-0.212464 2.19778,-6.349208 2.19778,-6.349208"
         id="path8613"
         sodipodi:nodetypes="ccccccccscccccccsccsssc" /><path
         style="opacity:0.34969325;fill:#8a9696;fill-opacity:0.36842105;stroke:#99a7be;stroke-width:1.085;stroke-linecap:square;stroke-linejoin:miter;stroke-miterlimit:3.7;stroke-dasharray:none;stroke-dashoffset:0;stroke-opacity:0.708511;paint-order:markers fill stroke;stop-color:#000000"
         d="m 101.31185,94.141373 -0.16933,4.317845 2.41291,0.423318 2.11659,0.846636 3.30188,-1.862599 1.82027,-4.444841"
         id="path15771" /></g><path
       style="opacity:0.741551;fill:none;fill-opacity:1;stroke:#121519;stroke-width:1.42875;stroke-linecap:round;stroke-linejoin:round;stroke-dasharray:none;stroke-opacity:1;paint-order:markers fill stroke;stop-color:#000000"
       d="m 140.11874,118.01046 -1.07759,-0.11974 -1.85586,0.83813 -3.41237,-4.0709 c 0,0 -1.67625,-0.89799 -1.67625,-1.13746 0,-0.23946 0.35919,-1.43679 0.1796,-1.73612 -0.1796,-0.29933 -2.69399,-4.37023 -2.69399,-4.37023 h 0.59867 c 0,0 0.65852,0.29933 0.65852,-0.1796 0,-0.47893 -0.29933,-2.03545 -0.29933,-2.03545 l -0.95786,-0.77827 -3.77157,0.5388 -2.69398,-0.83813 h -1.25719 l -1.19732,0.83813 -2.69398,-1.01773 -1.37693,-0.83812 -0.77826,-2.63412 -5.02876,0.47893 -1.67625,0.83813 -2.15519,0.11973 -0.59866,-0.41906 -2.45452,2.09532 -0.17959,2.03545 -1.67626,1.67625 -0.95786,0.11974 -1.436785,2.99331 -0.359197,1.25719 0.299331,1.91572 -1.137458,2.15518 0.538796,1.61639 1.616393,1.49665 0.59866,1.73612 3.11304,1.79599 c 0,0 2.63411,-0.0599 2.87358,-0.0599 0.23946,0 4.13077,-0.83813 4.13077,-0.83813 l 2.15518,0.59866 1.61639,0.83813 -0.59866,2.63411 2.63411,3.59197 c 0,0 0.41906,2.57425 0.3592,2.81372 -0.0599,0.23946 -0.7184,1.91572 -0.7184,2.15518 0,0.23947 -0.11973,1.19733 0,1.49666 0.11973,0.29933 1.97559,3.47224 1.97559,3.47224 0,0 0.3592,2.15518 0.29933,2.45451 -0.0599,0.29933 1.01772,1.31706 1.01772,1.73612 0,0.41907 0.7184,2.27492 0.7184,2.27492 l -0.29933,0.65853 0.95786,0.65853 4.2505,-0.41907 3.05318,-1.97558 1.61638,-3.17291 c 0,0 1.19733,-0.83813 1.2572,-1.13746 0.0599,-0.29933 -0.0599,-3.05318 -0.0599,-3.05318 l 3.23278,-1.97558 0.0599,-1.19733 c 0,0 -1.07759,-3.8913 -1.07759,-4.2505 0,-0.3592 -0.1796,-2.51438 0.23946,-2.87358 0.41907,-0.3592 3.71171,-3.47224 3.71171,-3.47224 l 2.03545,-2.45451 0.65853,-3.05318 -3.29264,0.71839 z"
       id="path8096" /><path
       style="opacity:0.741551;fill:none;fill-opacity:1;stroke:#121519;stroke-width:1.42875;stroke-linecap:round;stroke-linejoin:round;stroke-dasharray:none;stroke-opacity:1;paint-order:markers fill stroke;stop-color:#000000"
       d="m 139.31855,132.40206 -1.18529,1.73561 c 0,0 -1.65094,0.8043 -1.65094,0.97363 0,0.16933 -0.127,0.9313 -0.127,0.9313 0,0 0.16933,1.22762 0.127,1.43928 -0.0423,0.21166 -0.25399,2.20126 -0.25399,2.20126 l 0.55031,0.93129 1.14296,0.127 0.84664,-0.42332 0.8043,-2.70923 0.76197,-2.37059 -0.0423,-2.70923 z"
       id="path8476" /></g></svg>
